<?xml version="1.0" encoding="UTF-8" standalone="no"?>
<!DOCTYPE svg PUBLIC "-//W3C//DTD SVG 1.1//EN" "http://www.w3.org/Graphics/SVG/1.1/DTD/svg11.dtd">
<!-- 由 Microsoft Visio, SVG Export 生成 booth_fsm_top.svg 页-1 -->
<svg xmlns="http://www.w3.org/2000/svg" xmlns:xlink="http://www.w3.org/1999/xlink" xmlns:ev="http://www.w3.org/2001/xml-events"
		xmlns:v="http://schemas.microsoft.com/visio/2003/SVGExtensions/" width="10.9053in" height="6.04787in"
		viewBox="0 0 785.183 435.447" xml:space="preserve" color-interpolation-filters="sRGB" class="st8">
	<v:documentProperties v:langID="2052" v:metric="true" v:viewMarkup="false"/>

	<style type="text/css">
	<![CDATA[
		.st1 {visibility:visible}
		.st2 {fill:#000000;fill-opacity:0.4;filter:url(#filter_2.6666667461395);stroke:#000000;stroke-opacity:0.4}
		.st3 {fill:#ffffff;stroke:#000000;stroke-width:2.25}
		.st4 {fill:#000000;font-family:Calibri;font-size:0.833336em}
		.st5 {fill:#000000;font-family:Calibri;font-size:3em}
		.st6 {fill:#ffffff;stroke:#000000;stroke-width:1.5}
		.st7 {fill:#000000;font-family:Calibri;font-size:1.99999em}
		.st8 {fill:none;fill-rule:evenodd;font-size:12px;overflow:visible;stroke-linecap:square;stroke-miterlimit:3}
	]]>
	</style>

	<defs id="Filters">
		<filter id="filter_2.6666667461395">
			<feGaussianBlur stdDeviation="2.6666667461395"/>
		</filter>
	</defs>
	<g v:mID="0" v:index="1" v:groupContext="foregroundPage">
		<title>页-1</title>
		<v:pageProperties v:drawingScale="0.0393701" v:pageScale="0.0393701" v:drawingUnits="24" v:shadowOffsetX="8.50394"
				v:shadowOffsetY="-8.50394"/>
		<g id="group13-1" transform="translate(2.62962,-7.24631)" v:mID="13" v:groupContext="group">
			<title>工作表.13</title>
			<g id="shape3-2" v:mID="3" v:groupContext="shape" transform="translate(818.142,10.25) rotate(90)">
				<title>矩形.3</title>
				<desc>CLK</desc>
				<v:userDefs>
					<v:ud v:nameU="visVersion" v:val="VT0(15):26"/>
				</v:userDefs>
				<v:textBlock v:margins="rect(4,4,4,4)" v:tabSpace="42.5197"/>
				<v:textRect cx="56.6929" cy="428.36" width="113.39" height="14.1732"/>
				<g id="shadow3-3" v:groupContext="shadow" v:shadowOffsetX="2.12132" v:shadowOffsetY="-2.12132" v:shadowType="1"
						transform="matrix(1,0,0,1,2.12132,-2.12132)" class="st1">
					<rect x="0" y="421.274" width="113.386" height="14.1732" class="st2"/>
				</g>
				<rect x="0" y="421.274" width="113.386" height="14.1732" class="st3"/>
				<text x="4" y="431.36" class="st4" v:langID="2052"><v:paragraph/><v:tabList/>CLK</text>			</g>
			<g id="shape4-8" v:mID="4" v:groupContext="shape" transform="translate(170.097,-269.291)">
				<title>矩形.4</title>
				<desc>en</desc>
				<v:userDefs>
					<v:ud v:nameU="visVersion" v:val="VT0(15):26"/>
				</v:userDefs>
				<v:textBlock v:margins="rect(4,4,4,4)" v:tabSpace="42.5197"/>
				<v:textRect cx="56.6929" cy="428.36" width="113.39" height="14.1732"/>
				<g id="shadow4-9" v:groupContext="shadow" v:shadowOffsetX="2.12132" v:shadowOffsetY="-2.12132" v:shadowType="1"
						transform="matrix(1,0,0,1,2.12132,2.12132)" class="st1">
					<rect x="0" y="421.274" width="113.386" height="14.1732" class="st2"/>
				</g>
				<rect x="0" y="421.274" width="113.386" height="14.1732" class="st3"/>
				<text x="4" y="431.36" class="st4" v:langID="2052"><v:paragraph/><v:tabList/>en</text>			</g>
			<g id="shape5-14" v:mID="5" v:groupContext="shape" transform="translate(170.097,-170.079)">
				<title>矩形.5</title>
				<desc>multiplier</desc>
				<v:userDefs>
					<v:ud v:nameU="visVersion" v:val="VT0(15):26"/>
				</v:userDefs>
				<v:textBlock v:margins="rect(4,4,4,4)" v:tabSpace="42.5197"/>
				<v:textRect cx="56.6929" cy="428.36" width="113.39" height="14.1732"/>
				<g id="shadow5-15" v:groupContext="shadow" v:shadowOffsetX="2.12132" v:shadowOffsetY="-2.12132" v:shadowType="1"
						transform="matrix(1,0,0,1,2.12132,2.12132)" class="st1">
					<rect x="0" y="421.274" width="113.386" height="14.1732" class="st2"/>
				</g>
				<rect x="0" y="421.274" width="113.386" height="14.1732" class="st3"/>
				<text x="4" y="431.36" class="st4" v:langID="2052"><v:paragraph/><v:tabList/>multiplier</text>			</g>
			<g id="shape6-20" v:mID="6" v:groupContext="shape" transform="translate(170.097,-113.386)">
				<title>矩形.6</title>
				<desc>multiplicand</desc>
				<v:userDefs>
					<v:ud v:nameU="visVersion" v:val="VT0(15):26"/>
				</v:userDefs>
				<v:textBlock v:margins="rect(4,4,4,4)" v:tabSpace="42.5197"/>
				<v:textRect cx="56.6929" cy="428.36" width="113.39" height="14.1732"/>
				<g id="shadow6-21" v:groupContext="shadow" v:shadowOffsetX="2.12132" v:shadowOffsetY="-2.12132" v:shadowType="1"
						transform="matrix(1,0,0,1,2.12132,2.12132)" class="st1">
					<rect x="0" y="421.274" width="113.386" height="14.1732" class="st2"/>
				</g>
				<rect x="0" y="421.274" width="113.386" height="14.1732" class="st3"/>
				<text x="4" y="431.36" class="st4" v:langID="2052"><v:paragraph/><v:tabList/>multiplicand</text>			</g>
			<g id="shape8-26" v:mID="8" v:groupContext="shape" transform="translate(818.142,322.061) rotate(90)">
				<title>矩形.8</title>
				<desc>Rstn</desc>
				<v:userDefs>
					<v:ud v:nameU="visVersion" v:val="VT0(15):26"/>
				</v:userDefs>
				<v:textBlock v:margins="rect(4,4,4,4)" v:tabSpace="42.5197"/>
				<v:textRect cx="56.6929" cy="428.36" width="113.39" height="14.1732"/>
				<g id="shadow8-27" v:groupContext="shadow" v:shadowOffsetX="2.12132" v:shadowOffsetY="-2.12132" v:shadowType="1"
						transform="matrix(1,0,0,1,2.12132,-2.12132)" class="st1">
					<rect x="0" y="421.274" width="113.386" height="14.1732" class="st2"/>
				</g>
				<rect x="0" y="421.274" width="113.386" height="14.1732" class="st3"/>
				<text x="91.44" y="431.36" class="st4" v:langID="2052"><v:paragraph v:horizAlign="2"/><v:tabList/>Rstn</text>			</g>
			<g id="shape9-32" v:mID="9" v:groupContext="shape" transform="translate(496.081,-269.291)">
				<title>矩形.9</title>
				<desc>done</desc>
				<v:userDefs>
					<v:ud v:nameU="visVersion" v:val="VT0(15):26"/>
				</v:userDefs>
				<v:textBlock v:margins="rect(4,4,4,4)" v:tabSpace="42.5197"/>
				<v:textRect cx="56.6929" cy="428.36" width="113.39" height="14.1732"/>
				<g id="shadow9-33" v:groupContext="shadow" v:shadowOffsetX="2.12132" v:shadowOffsetY="-2.12132" v:shadowType="1"
						transform="matrix(1,0,0,1,2.12132,2.12132)" class="st1">
					<rect x="0" y="421.274" width="113.386" height="14.1732" class="st2"/>
				</g>
				<rect x="0" y="421.274" width="113.386" height="14.1732" class="st3"/>
				<text x="88.63" y="431.36" class="st4" v:langID="2052"><v:paragraph v:horizAlign="2"/><v:tabList/>done</text>			</g>
			<g id="shape10-38" v:mID="10" v:groupContext="shape" transform="translate(496.081,-127.559)">
				<title>矩形.10</title>
				<desc>product</desc>
				<v:userDefs>
					<v:ud v:nameU="visVersion" v:val="VT0(15):26"/>
				</v:userDefs>
				<v:textBlock v:margins="rect(4,4,4,4)" v:tabSpace="42.5197"/>
				<v:textRect cx="56.6929" cy="428.36" width="113.39" height="14.1732"/>
				<g id="shadow10-39" v:groupContext="shadow" v:shadowOffsetX="2.12132" v:shadowOffsetY="-2.12132" v:shadowType="1"
						transform="matrix(1,0,0,1,2.12132,2.12132)" class="st1">
					<rect x="0" y="421.274" width="113.386" height="14.1732" class="st2"/>
				</g>
				<rect x="0" y="421.274" width="113.386" height="14.1732" class="st3"/>
				<text x="77.29" y="431.36" class="st4" v:langID="2052"><v:paragraph v:horizAlign="2"/><v:tabList/>product</text>			</g>
			<g id="shape1-44" v:mID="1" v:groupContext="shape" transform="translate(255.137,-85.0394)">
				<title>矩形</title>
				<desc>Booth_fsm</desc>
				<v:userDefs>
					<v:ud v:nameU="visVersion" v:val="VT0(15):26"/>
				</v:userDefs>
				<v:textBlock v:margins="rect(4,4,4,4)" v:tabSpace="42.5197"/>
				<v:textRect cx="134.646" cy="307.888" width="269.3" height="255.118"/>
				<g id="shadow1-45" v:groupContext="shadow" v:shadowOffsetX="2.12132" v:shadowOffsetY="-2.12132" v:shadowType="1"
						transform="matrix(1,0,0,1,2.12132,2.12132)" class="st1">
					<rect x="0" y="180.329" width="269.291" height="255.118" class="st2"/>
				</g>
				<rect x="0" y="180.329" width="269.291" height="255.118" class="st3"/>
				<text x="54.51" y="318.69" class="st5" v:langID="2052"><v:paragraph v:horizAlign="1"/><v:tabList/>Booth_fsm</text>			</g>
			<g id="shape11-50" v:mID="11" v:groupContext="shape" transform="translate(108.611,658.437) rotate(-179.926)">
				<title>普通箭头</title>
				<desc>Input</desc>
				<v:userDefs>
					<v:ud v:nameU="visVersion" v:val="VT0(15):26"/>
					<v:ud v:nameU="ArrowType" v:prompt="" v:val="VT0(2):26"/>
				</v:userDefs>
				<v:textBlock v:margins="rect(4,4,4,4)" v:tabSpace="42.5197"/>
				<v:textRect cx="54.5788" cy="435.447" width="109.16" height="0" transform="rotate(180)"/>
				<g id="shadow11-51" v:groupContext="shadow" v:shadowOffsetX="2.12132" v:shadowOffsetY="-2.12132" v:shadowType="1"
						transform="matrix(1,0,0,1,-2.12407,-2.11856)" class="st1">
					<path d="M0 435.45 L31.14 407.1 L31.14 421.27 L109.16 421.27 L109.16 435.45 L109.16 449.62 L31.14 449.62 L31.14
								 463.79 L0 435.45 Z" class="st2"/>
				</g>
				<path d="M0 435.45 L31.14 407.1 L31.14 421.27 L109.16 421.27 L109.16 435.45 L109.16 449.62 L31.14 449.62 L31.14 463.79
							 L0 435.45 Z" class="st6"/>
				<text x="-80.54" y="-428.25" transform="rotate(180)" class="st7" v:langID="2052"><v:paragraph v:horizAlign="1"/><v:tabList/>Input</text>			</g>
			<g id="shape12-56" v:mID="12" v:groupContext="shape" transform="translate(774.752,658.437) rotate(-179.926)">
				<title>普通箭头.12</title>
				<desc>Output</desc>
				<v:userDefs>
					<v:ud v:nameU="visVersion" v:val="VT0(15):26"/>
					<v:ud v:nameU="ArrowType" v:prompt="" v:val="VT0(2):26"/>
				</v:userDefs>
				<v:textBlock v:margins="rect(4,4,4,4)" v:tabSpace="42.5197"/>
				<v:textRect cx="54.5788" cy="435.447" width="109.16" height="0" transform="rotate(180)"/>
				<g id="shadow12-57" v:groupContext="shadow" v:shadowOffsetX="2.12132" v:shadowOffsetY="-2.12132" v:shadowType="1"
						transform="matrix(1,0,0,1,-2.12407,-2.11856)" class="st1">
					<path d="M0 435.45 L31.14 407.1 L31.14 421.27 L109.16 421.27 L109.16 435.45 L109.16 449.62 L31.14 449.62 L31.14
								 463.79 L0 435.45 Z" class="st2"/>
				</g>
				<path d="M0 435.45 L31.14 407.1 L31.14 421.27 L109.16 421.27 L109.16 435.45 L109.16 449.62 L31.14 449.62 L31.14 463.79
							 L0 435.45 Z" class="st6"/>
				<text x="-89.48" y="-428.25" transform="rotate(180)" class="st7" v:langID="2052"><v:paragraph v:horizAlign="1"/><v:tabList/>Output</text>			</g>
		</g>
	</g>
</svg>
